<svg xmlns="http://www.w3.org/2000/svg" viewBox="0 0 335.85 294.39"><defs><style>.cls-1{fill:#2790b0;}.cls-2{fill:#ccd6df;}.cls-3{fill:#fff;}.cls-4,.cls-5,.cls-6,.cls-8{font-size:9px;}.cls-4,.cls-5,.cls-6,.cls-8,.cls-9{fill:#6d6e71;font-family:Verdana;}.cls-4{letter-spacing:-0.01em;}.cls-5{letter-spacing:-0.03em;}.cls-6{letter-spacing:-0.03em;}.cls-7{font-size:7.68px;fill:#73a9c3;font-family:HiraKakuPro-W3-83pv-RKSJ-H, Hiragino Kaku Gothic Pro;}.cls-8{letter-spacing:-0.04em;}.cls-9{font-size:5.75px;letter-spacing:-0.01em;}</style></defs><title>sp-chart-2018</title><g id="Layer_2" data-name="Layer 2"><g id="Layer_1-2" data-name="Layer 1"><path class="cls-1" d="M0,0H239.36V26.79H0ZM239.36,0h96.49V26.79H239.36Z"/><path class="cls-2" d="M0,26.79H239.36V42.53H0Zm239.36,0h96.49V42.53H239.36ZM0,58.27H239.36V74H0Zm239.36,0h96.49V74H239.36ZM0,89.75H239.36v15.74H0Zm239.36,0h96.49v15.74H239.36ZM0,121.23H239.36V137H0Zm239.36,0h96.49V137H239.36ZM0,152.72H239.36v15.74H0Zm239.36,0h96.49v15.74H239.36ZM0,184.2H239.36v15.74H0Zm239.36,0h96.49v15.74H239.36ZM0,215.68H239.36v15.74H0Zm239.36,0h96.49v15.74H239.36ZM0,247.16H239.36V262.9H0Zm239.36,0h96.49V262.9H239.36ZM0,278.64H239.36v15.75H0Zm239.36,0h96.49v15.75H239.36Z"/><path class="cls-3" d="M0,42.53H229.51V58.27H0Zm229.51,0H322V58.27H229.51ZM0,74H229.51V89.75H0Zm229.51,0H322V89.75H229.51ZM0,105.49H229.51v15.74H0Zm229.51,0H322v15.74H229.51ZM0,137H229.51v15.75H0Zm229.51,0H322v15.75H229.51ZM0,168.46H229.51V184.2H0Zm229.51,0H322V184.2H229.51ZM0,199.94H229.51v15.74H0Zm229.51,0H322v15.74H229.51Z"/><path class="cls-3" d="M15.33,231.42h221v15.74h-221Zm221,0h89.09v15.74H236.34Zm-221,31.48h221v15.74h-221Zm221,0h89.09v15.74H236.34Z"/><text class="cls-4" transform="translate(9.02 37.9)">Convert to PDF &amp; PDF/A with Full-text Searchable OCR</text><text/><text/><text/><text/><text/><text class="cls-4" transform="translate(9.02 53.64)">Convert to Word, Excel &amp; PowerPoint</text><text/><text/><text/><text/><text/><text/><text/><text/><text/><text/><text/><text/><text/><text class="cls-4" transform="translate(9.02 85.13)">Scan-to-Email (Integrates with Microsoft Exchange) </text><text class="cls-4" transform="translate(9.02 100.87)">Scan-to-SharePoint</text><text/><text/><text class="cls-4" transform="translate(9.02 116.61)">Image Clean Up</text><text class="cls-4" transform="translate(9.02 132.35)">Individual MFP Profiles</text><text/><text/><text/><text/><text class="cls-4" transform="translate(9.02 148.1)">Easy Installation and Setup</text><text class="cls-4" transform="translate(9.02 163.84)">Integrated with Prism WorkPath</text><text/><text/><text/><text/><text/><text/><text class="cls-4" transform="translate(9.02 179.58)">OCR for Over 25 Languages</text><text/><text class="cls-5" transform="translate(9.02 195.32)">Localized Interface in Multiple Languages</text><text/><text/><text class="cls-4" transform="translate(9.02 211.07)">Scan-to-Web Repositories (Box, Dropbox, Google Drive)</text><text/><text/><text/><text/><text class="cls-6" transform="translate(9.02 226.8)">Workflow &amp; Zonal OCR</text><text/><text/><text/><text/><text/><text class="cls-7" transform="translate(284.99 226.66)">◉</text><text class="cls-8" transform="translate(9.02 242.54)">Follow Print &amp; Secure Release</text><text/><text/><text class="cls-7" transform="translate(284.99 242.4)">◉</text><text class="cls-4" transform="translate(9.02 258.28)">Bates Stamping</text><text class="cls-7" transform="translate(284.99 258.14)">◉</text><text class="cls-4" transform="translate(9.02 274.03)">Scan-to-Barcode Cover Sheet</text><text/><text class="cls-7" transform="translate(284.99 273.88)">◉</text><text class="cls-8" transform="translate(9.02 289.75)"><tspan xml:space="preserve">FastLink     for Third-Party Software Integration</tspan></text><text/><text class="cls-9" transform="translate(44.5 286.47)">TM</text><text/><text/><text/><text/><text/><text/><text class="cls-7" transform="translate(284.99 289.62)">◉</text><path class="cls-3" d="M256,17.39a2.09,2.09,0,0,0,2.09,2.1,2.05,2.05,0,0,0,2.1-2c0-1.47-1.26-1.79-2.47-2.2-.85-.24-2.68-.78-2.68-2.76a2.9,2.9,0,0,1,3.11-2.89,2.83,2.83,0,0,1,3,2.71h-1.16a1.89,1.89,0,0,0-3.76.08c0,1.28,1,1.59,2.59,2.12,1,.38,2.55.94,2.55,2.86a3,3,0,0,1-3.24,3.07,3.08,3.08,0,0,1-3.27-3.1Z"/><path class="cls-3" d="M270.12,17.73a4,4,0,1,1,0-2.41h-1.08a3,3,0,0,0-4.9-1,3.11,3.11,0,0,0-.86,2.18,3,3,0,0,0,3,3.05A2.88,2.88,0,0,0,269,17.73Z"/><path class="cls-3" d="M272.05,16.52a3,3,0,0,0,3.05,3,2.86,2.86,0,0,0,2.74-1.85,3,3,0,0,0,.25-1.21,2.9,2.9,0,0,0-.23-1.21,2.94,2.94,0,0,0-2.79-1.82,3,3,0,0,0-3,3.05v0Zm7.06,3.78h-1V18.72A3.38,3.38,0,0,1,275,20.51a3.88,3.88,0,0,1-3.94-4,3.88,3.88,0,0,1,3.94-4,3.35,3.35,0,0,1,3.12,1.81v-1.6h1V20.3Z"/><path class="cls-3" d="M281,12.69h1c0,.43,0,.86,0,1.37a2.83,2.83,0,0,1,2.81-1.58c2.37,0,3.21,1.65,3.21,3.5V20.3H287V16.19c0-1.64-.72-2.75-2.44-2.73A2.31,2.31,0,0,0,282.05,16v4.3h-1V12.69Z"/><path class="cls-3" d="M290.23,15.4h2a3.61,3.61,0,0,0,2.37-.58,2.58,2.58,0,0,0,.86-2,2.6,2.6,0,0,0-.86-2,3.53,3.53,0,0,0-2.37-.58h-2V15.4Zm2-5.56a4,4,0,0,1,2.62.62,3.13,3.13,0,0,1,0,4.7,4.05,4.05,0,0,1-2.62.62h-2V20.3h-.42V9.84Z"/><path class="cls-3" d="M296.42,16.57A3.48,3.48,0,0,0,300,20.12a3.43,3.43,0,0,0,3.3-2.34,3.6,3.6,0,0,0,.21-1.31,3.54,3.54,0,0,0-.25-1.3,3.57,3.57,0,0,0-6.85,1.38v0Zm7.45,3.73h-.39V18.36A3.75,3.75,0,0,1,300,20.48a3.93,3.93,0,1,1,0-7.85,3.73,3.73,0,0,1,3.51,2.16v-2h.39V20.3Z"/><polygon class="cls-3" points="306.59 13.18 304.93 13.18 304.93 12.81 306.59 12.81 306.59 9.84 306.98 9.84 306.98 12.81 308.9 12.81 308.9 13.18 306.98 13.18 306.98 20.3 306.59 20.3 306.59 13.18 306.59 13.18"/><path class="cls-3" d="M310,9.84h.39v4.48a3.19,3.19,0,0,1,3-1.69,3.29,3.29,0,0,1,2.62,1,4,4,0,0,1,.82,2.7v4h-.4v-4a3.7,3.7,0,0,0-.71-2.43,2.87,2.87,0,0,0-2.33-.92,3.22,3.22,0,0,0-2.22.81,3,3,0,0,0-.82,2.19V20.3H310V9.84Z"/><path class="cls-3" d="M318.78,18.82h.13l.69,1.34.7-1.34h.12V20.3h-.09V19l-.7,1.35h-.06l-.7-1.35V20.3h-.09V18.82Zm-.72.08h-.41v-.08h.92v.08h-.42v1.4h-.09V18.9Z"/><text class="cls-4" transform="translate(9.02 69.39)">Scan-to-Folders</text><text class="cls-7" transform="translate(284.99 211.22)">◉</text><text class="cls-7" transform="translate(284.99 195.48)">◉</text><text class="cls-7" transform="translate(284.99 179.74)">◉</text><text class="cls-7" transform="translate(285.06 164)">◉</text><text class="cls-7" transform="translate(284.99 148.26)">◉</text><text class="cls-7" transform="translate(284.99 132.51)">◉</text><text class="cls-7" transform="translate(284.99 116.77)">◉</text><text class="cls-7" transform="translate(284.99 101.03)">◉</text><text class="cls-7" transform="translate(284.99 85.29)">◉</text><text class="cls-7" transform="translate(284.99 69.54)">◉</text><text class="cls-7" transform="translate(284.99 53.8)">◉</text><text class="cls-7" transform="translate(284.99 38.06)">◉</text></g></g></svg>